<svg width="46" height="49" viewBox="0 0 46 49" fill="none" xmlns="http://www.w3.org/2000/svg">
<rect x="1.59232" y="24" width="39.9334" height="2" fill="#4CAF50"/>
<path d="M12.4907 39.54C10.7387 39.54 9.27467 39.192 8.09867 38.496C6.92267 37.776 6.03467 36.792 5.43467 35.544C4.83467 34.296 4.53467 32.844 4.53467 31.188V17.976C4.53467 16.272 4.81067 14.784 5.36267 13.512C5.93867 12.216 6.81467 11.208 7.99067 10.488C9.16667 9.768 10.6667 9.408 12.4907 9.408C14.3147 9.408 15.8027 9.768 16.9547 10.488C18.1307 11.208 18.9947 12.216 19.5467 13.512C20.1227 14.784 20.4107 16.272 20.4107 17.976V31.188C20.4107 32.82 20.1107 34.272 19.5107 35.544C18.9107 36.792 18.0227 37.776 16.8467 38.496C15.6707 39.192 14.2187 39.54 12.4907 39.54ZM12.4907 34.176C13.0667 34.176 13.4747 33.996 13.7147 33.636C13.9787 33.252 14.1347 32.82 14.1827 32.34C14.2547 31.836 14.2907 31.404 14.2907 31.044V18.12C14.2907 17.712 14.2667 17.256 14.2187 16.752C14.1707 16.224 14.0147 15.768 13.7507 15.384C13.5107 14.976 13.0907 14.772 12.4907 14.772C11.8907 14.772 11.4587 14.976 11.1947 15.384C10.9547 15.768 10.8107 16.224 10.7627 16.752C10.7147 17.256 10.6907 17.712 10.6907 18.12V31.044C10.6907 31.404 10.7267 31.836 10.7987 32.34C10.8707 32.82 11.0267 33.252 11.2667 33.636C11.5307 33.996 11.9387 34.176 12.4907 34.176ZM29.4756 39V15.78C29.2116 15.924 28.9116 16.068 28.5756 16.212C28.2396 16.356 27.8796 16.512 27.4956 16.68C27.1356 16.824 26.7756 16.968 26.4156 17.112C26.0796 17.256 25.7676 17.4 25.4796 17.544V13.08C25.7436 12.936 26.1156 12.744 26.5956 12.504C27.0756 12.24 27.5916 11.952 28.1436 11.64C28.6956 11.328 29.2116 11.016 29.6916 10.704C30.1716 10.368 30.5316 10.08 30.7716 9.84H35.4876V39H29.4756Z" fill="white"/>
<rect x="0.593994" y="24" width="9.98336" height="2" fill="#4CAF50"/>
</svg>
